<?xml version="1.0" standalone="no"?>
<!DOCTYPE svg PUBLIC "-//W3C//DTD SVG 20010904//EN"
 "http://www.w3.org/TR/2001/REC-SVG-20010904/DTD/svg10.dtd">
<svg version="1.0" xmlns="http://www.w3.org/2000/svg"
 width="512.000000pt" height="512.000000pt" viewBox="0 0 512.000000 512.000000"
 preserveAspectRatio="xMidYMid meet">
<metadata>
Created by potrace 1.14, written by Peter Selinger 2001-2017
</metadata>
<g transform="translate(0.000000,512.000000) scale(0.100000,-0.100000)"
fill="#000000" stroke="none">
<path d="M2711 4113 c-6 -27 -27 -120 -47 -208 -20 -88 -37 -167 -39 -175 -2
-8 -10 -45 -19 -81 -8 -37 -17 -78 -20 -90 -6 -31 -11 -49 -31 -134 -9 -38
-18 -79 -21 -90 -5 -26 -6 -30 -49 -220 -20 -88 -54 -239 -76 -335 -23 -96
-43 -185 -45 -198 -3 -12 -14 -62 -25 -110 -12 -48 -22 -94 -24 -102 -2 -8
-20 -87 -40 -175 -20 -88 -51 -227 -70 -310 -41 -181 -85 -374 -90 -395 -11
-46 -77 -339 -81 -360 -3 -14 -10 -43 -16 -65 -5 -22 -11 -47 -13 -55 -2 -8
-13 -58 -24 -110 -12 -52 -21 -95 -21 -97 0 -2 100 -3 223 -3 l222 0 49 218
c26 119 59 262 72 317 13 55 48 210 79 345 30 135 64 284 75 331 12 48 22 95
24 105 2 11 41 181 86 379 45 198 83 367 85 375 2 8 10 45 19 81 8 37 17 78
20 90 7 32 9 42 46 199 17 74 33 146 36 159 3 12 12 53 20 90 9 36 17 73 19
81 2 8 10 45 19 81 8 37 17 78 20 90 5 29 30 137 56 244 10 44 21 92 24 108 3
15 8 36 11 47 6 20 1 20 -218 20 l-225 0 -11 -47z"/>
<path d="M1710 3609 c-41 -22 -158 -83 -260 -136 -102 -52 -221 -115 -265
-138 -74 -39 -131 -69 -415 -217 -110 -58 -290 -152 -525 -275 -77 -41 -164
-86 -192 -100 l-53 -27 0 -206 0 -206 142 -73 c79 -41 175 -91 213 -111 39
-21 138 -72 220 -115 83 -43 200 -103 260 -135 61 -31 173 -90 250 -130 77
-40 185 -96 240 -125 55 -29 177 -92 270 -140 94 -48 176 -92 183 -98 7 -5 15
-7 19 -4 3 4 6 122 6 264 l1 258 -91 45 c-49 25 -137 67 -194 94 -57 28 -192
92 -299 144 -107 52 -240 116 -295 142 -302 144 -375 180 -375 184 0 2 55 31
123 64 353 174 1122 554 1126 557 3 3 5 437 2 503 -1 12 -4 22 -8 22 -5 -1
-42 -19 -83 -41z"/>
<path d="M3319 3608 c-2 -144 -1 -479 2 -483 2 -2 186 -93 409 -203 585 -288
833 -412 838 -417 3 -2 -51 -31 -119 -63 -68 -33 -187 -90 -264 -127 -358
-173 -436 -210 -520 -250 -275 -130 -345 -165 -346 -172 -1 -11 -1 -506 0
-516 1 -7 120 52 476 238 55 29 172 90 260 135 88 46 192 100 230 120 39 20
151 79 250 131 99 51 239 124 310 161 72 37 163 85 203 105 l72 36 0 206 0
207 -142 73 c-79 41 -174 90 -213 111 -145 77 -265 140 -420 220 -88 45 -200
104 -250 130 -49 26 -153 80 -230 120 -77 40 -162 85 -190 100 -94 51 -344
180 -350 180 -3 0 -5 -19 -6 -42z"/>
</g>
</svg>
